<?xml version="1.0" standalone="no"?><!DOCTYPE svg PUBLIC "-//W3C//DTD SVG 1.1//EN" "http://www.w3.org/Graphics/SVG/1.1/DTD/svg11.dtd"><svg class="icon" width="200px" height="200.00px" viewBox="0 0 1024 1024" version="1.1" xmlns="http://www.w3.org/2000/svg"><path d="M512.1 512.4m-448 0a448 448 0 1 0 896 0 448 448 0 1 0-896 0Z" fill="#EA63EA" /><path d="M512.1 394.5m-166.4 0a166.4 166.4 0 1 0 332.8 0 166.4 166.4 0 1 0-332.8 0Z" fill="#FFFFFF" /><path d="M624.4 796.7H399.7c-64.8 0-117.9-53-117.9-117.9 0-64.8 53-117.9 117.9-117.9h224.7c64.8 0 117.9 53 117.9 117.9 0 64.8-53 117.9-117.9 117.9z" fill="#FFFFFF" /><path d="M512.1 522.9c-85.7 0-158.2-56.3-182.6-133.9-1.5-4.9-8.8-3.8-8.8 1.3v0.3c0 105.7 85.7 191.4 191.4 191.4s191.4-85.7 191.4-191.4v-0.3c0-5.1-7.2-6.2-8.8-1.3-24.4 77.6-96.9 133.9-182.6 133.9z" fill="#FFFFFF" /><path d="M512.1 401.1m-110.9 0a110.9 110.9 0 1 0 221.8 0 110.9 110.9 0 1 0-221.8 0Z" fill="#EA63EA" /><path d="M588.8 375.5c-5.8 2.1-18.2 12.7-23.9 11.2 0 0.8 0.1 1.5 0.1 2.3 0 29.2-23.7 52.9-52.9 52.9s-52.9-23.7-52.9-52.9c0-0.8 0-1.5 0.1-2.3-5.7 1.5-18.7-10-24.5-12-11.3-3.9-23.1-4.2-31.6 2.9-1.3 6.8-2 13.8-2 21 0 61.3 49.7 110.9 110.9 110.9S623 459.9 623 398.7c0-7.2-0.7-14.2-2-21-10.9-9.2-16.9-7.8-32.2-2.2z" fill="#EA63EA" /><path d="M512.2 389.4m-52.9 0a52.9 52.9 0 1 0 105.8 0 52.9 52.9 0 1 0-105.8 0Z" fill="#EA63EA" /><path d="M512.2 319.7m-12.3 0a12.3 12.3 0 1 0 24.6 0 12.3 12.3 0 1 0-24.6 0Z" fill="#EA63EA" /><path d="M617.3 796.7h14.2s7.7 0 16-10.1c5.1-6.2 7.7-11.8 8.8-15.1 0.6-1.7-0.4-3.5-2.1-4-1.5-0.4-3 0.4-3.5 1.8-1.3 3.3-4.4 9.6-10.3 15.4-8.9 8.8-23.1 12-23.1 12zM592.5 796.7h14.2s7.7 0 16-10.1c5.1-6.2 7.7-11.8 8.8-15.1 0.6-1.7-0.4-3.5-2.1-4-1.5-0.4-3 0.4-3.5 1.8-1.3 3.3-4.4 9.6-10.3 15.4-9 8.8-23.1 12-23.1 12zM564.6 796.7h14.2s7.7 0 16-10.1c5.1-6.2 7.7-11.8 8.8-15.1 0.6-1.7-0.4-3.5-2.1-4-1.5-0.4-3 0.4-3.5 1.8-1.3 3.3-4.4 9.6-10.3 15.4-8.9 8.8-23.1 12-23.1 12zM417.1 796.7h-14.2s-7.7 0-16-10.1c-5.1-6.2-7.7-11.8-8.8-15.1-0.6-1.7 0.4-3.5 2.1-4 1.5-0.4 3 0.4 3.5 1.8 1.3 3.3 4.4 9.6 10.3 15.4 8.9 8.8 23.1 12 23.1 12zM441.9 796.7h-14.2s-7.7 0-16-10.1c-5.1-6.2-7.7-11.8-8.8-15.1-0.6-1.7 0.4-3.5 2.1-4 1.5-0.4 3 0.4 3.5 1.8 1.3 3.3 4.4 9.6 10.3 15.4 8.9 8.8 23.1 12 23.1 12zM469.8 796.7h-14.2s-7.7 0-16-10.1c-5.1-6.2-7.7-11.8-8.8-15.1-0.6-1.7 0.4-3.5 2.1-4 1.5-0.4 3 0.4 3.5 1.8 1.3 3.3 4.4 9.6 10.3 15.4 8.9 8.8 23.1 12 23.1 12z" fill="#EA63EA" /></svg>